G75*
G70*
%OFA0B0*%
%FSLAX24Y24*%
%IPPOS*%
%LPD*%
%AMOC8*
5,1,8,0,0,1.08239X$1,22.5*
%
%ADD10C,0.0000*%
%ADD11C,0.0079*%
%ADD12C,0.0080*%
D10*
X000534Y001854D02*
X000534Y008941D01*
X005652Y008941D01*
X005652Y001854D01*
X000534Y001854D01*
D11*
X001400Y003075D02*
X002818Y003075D01*
X002818Y003784D01*
X001400Y003784D01*
X001400Y003075D01*
X002030Y004414D02*
X002188Y004414D01*
X002739Y005063D02*
X002739Y005732D01*
X002188Y006382D02*
X002030Y006382D01*
X001479Y005732D02*
X001479Y005063D01*
X001400Y007012D02*
X002818Y007012D01*
X002818Y007721D01*
X001400Y007721D01*
X001400Y007012D01*
X003096Y004591D02*
X003098Y004606D01*
X003104Y004620D01*
X003114Y004632D01*
X003126Y004641D01*
X003141Y004646D01*
X003156Y004647D01*
X003171Y004644D01*
X003184Y004637D01*
X003195Y004626D01*
X003203Y004613D01*
X003207Y004599D01*
X003207Y004583D01*
X003203Y004569D01*
X003195Y004556D01*
X003184Y004545D01*
X003171Y004538D01*
X003156Y004535D01*
X003141Y004536D01*
X003126Y004541D01*
X003114Y004550D01*
X003104Y004562D01*
X003098Y004576D01*
X003096Y004591D01*
X003471Y007004D02*
X004471Y007004D01*
X004471Y008004D01*
X005471Y008004D01*
X005471Y002004D01*
X003471Y002004D01*
X003471Y007004D01*
X003471Y008004D01*
X004471Y008004D01*
D12*
X001163Y007663D02*
X001163Y007454D01*
X000954Y007663D01*
X000902Y007663D01*
X000850Y007611D01*
X000850Y007506D01*
X000902Y007454D01*
X000902Y007301D02*
X000850Y007248D01*
X000850Y007144D01*
X000902Y007091D01*
X001111Y007091D01*
X001163Y007144D01*
X001163Y007248D01*
X001111Y007301D01*
X001163Y005754D02*
X001163Y005544D01*
X001163Y005649D02*
X000850Y005649D01*
X000954Y005544D01*
X000850Y005391D02*
X001163Y005182D01*
X001163Y005391D02*
X000850Y005182D01*
X001163Y003726D02*
X001163Y003517D01*
X001163Y003621D02*
X000850Y003621D01*
X000954Y003517D01*
X000902Y003364D02*
X000850Y003311D01*
X000850Y003207D01*
X000902Y003154D01*
X001111Y003154D01*
X001163Y003207D01*
X001163Y003311D01*
X001111Y003364D01*
M02*
