G75*
G70*
%OFA0B0*%
%FSLAX24Y24*%
%IPPOS*%
%LPD*%
%AMOC8*
5,1,8,0,0,1.08239X$1,22.5*
%
%ADD10C,0.0000*%
%ADD11C,0.0594*%
%ADD12C,0.0277*%
%ADD13C,0.0079*%
D10*
X000534Y001854D02*
X000534Y008941D01*
X005652Y008941D01*
X005652Y001854D01*
X000534Y001854D01*
D11*
X003971Y002504D03*
X003971Y003504D03*
X003971Y004504D03*
X003971Y005504D03*
X003971Y006504D03*
X003971Y007504D03*
X004971Y007504D03*
X004971Y006504D03*
X004971Y005504D03*
X004971Y004504D03*
X004971Y003504D03*
X004971Y002504D03*
D12*
X003133Y003390D03*
X003172Y005358D03*
X003133Y007366D03*
X001322Y008351D03*
X005022Y008351D03*
X001322Y002445D03*
D13*
X000724Y002473D02*
X003556Y002473D01*
X003556Y002422D02*
X003619Y002269D01*
X003736Y002152D01*
X003889Y002089D01*
X004054Y002089D01*
X004206Y002152D01*
X004323Y002269D01*
X004386Y002422D01*
X004386Y002587D01*
X004323Y002739D01*
X004206Y002856D01*
X004054Y002919D01*
X003889Y002919D01*
X003736Y002856D01*
X003619Y002739D01*
X003556Y002587D01*
X003556Y002422D01*
X003567Y002395D02*
X000724Y002395D01*
X000724Y002318D02*
X003599Y002318D01*
X003647Y002241D02*
X000724Y002241D01*
X000724Y002164D02*
X003725Y002164D01*
X003556Y002550D02*
X000724Y002550D01*
X000724Y002627D02*
X003573Y002627D01*
X003605Y002705D02*
X000724Y002705D01*
X000724Y002782D02*
X003662Y002782D01*
X003744Y002859D02*
X000724Y002859D01*
X000724Y002936D02*
X005463Y002936D01*
X005463Y002859D02*
X005198Y002859D01*
X005206Y002856D02*
X005054Y002919D01*
X004889Y002919D01*
X004736Y002856D01*
X004619Y002739D01*
X004556Y002587D01*
X004556Y002422D01*
X004619Y002269D01*
X004736Y002152D01*
X004889Y002089D01*
X005054Y002089D01*
X005206Y002152D01*
X005323Y002269D01*
X005386Y002422D01*
X005386Y002587D01*
X005323Y002739D01*
X005206Y002856D01*
X005280Y002782D02*
X005463Y002782D01*
X005463Y002705D02*
X005337Y002705D01*
X005369Y002627D02*
X005463Y002627D01*
X005463Y002550D02*
X005386Y002550D01*
X005386Y002473D02*
X005463Y002473D01*
X005463Y002395D02*
X005375Y002395D01*
X005343Y002318D02*
X005463Y002318D01*
X005463Y002241D02*
X005295Y002241D01*
X005218Y002164D02*
X005463Y002164D01*
X005463Y002086D02*
X000724Y002086D01*
X000724Y002044D02*
X000724Y008752D01*
X005463Y008752D01*
X005463Y002044D01*
X000724Y002044D01*
X000724Y003014D02*
X005463Y003014D01*
X005463Y003091D02*
X005114Y003091D01*
X005058Y003068D02*
X005218Y003134D01*
X005341Y003257D01*
X005407Y003417D01*
X005407Y003465D01*
X005011Y003465D01*
X005011Y003543D01*
X005407Y003543D01*
X005407Y003591D01*
X005341Y003751D01*
X005218Y003874D01*
X005058Y003940D01*
X005010Y003940D01*
X005010Y003544D01*
X004932Y003544D01*
X004932Y003940D01*
X004884Y003940D01*
X004724Y003874D01*
X004601Y003751D01*
X004535Y003591D01*
X004535Y003543D01*
X004932Y003543D01*
X004932Y003465D01*
X004535Y003465D01*
X004535Y003417D01*
X004601Y003257D01*
X004724Y003134D01*
X004884Y003068D01*
X004932Y003068D01*
X004932Y003465D01*
X005010Y003465D01*
X005010Y003068D01*
X005058Y003068D01*
X005010Y003091D02*
X004932Y003091D01*
X004932Y003168D02*
X005010Y003168D01*
X005010Y003246D02*
X004932Y003246D01*
X004932Y003323D02*
X005010Y003323D01*
X005010Y003400D02*
X004932Y003400D01*
X004932Y003477D02*
X004386Y003477D01*
X004386Y003422D02*
X004386Y003587D01*
X004323Y003739D01*
X004206Y003856D01*
X004054Y003919D01*
X003889Y003919D01*
X003736Y003856D01*
X003619Y003739D01*
X003556Y003587D01*
X003556Y003422D01*
X003619Y003269D01*
X003736Y003152D01*
X003889Y003089D01*
X004054Y003089D01*
X004206Y003152D01*
X004323Y003269D01*
X004386Y003422D01*
X004377Y003400D02*
X004542Y003400D01*
X004574Y003323D02*
X004345Y003323D01*
X004300Y003246D02*
X004613Y003246D01*
X004690Y003168D02*
X004222Y003168D01*
X004058Y003091D02*
X004828Y003091D01*
X004744Y002859D02*
X004198Y002859D01*
X004280Y002782D02*
X004662Y002782D01*
X004605Y002705D02*
X004337Y002705D01*
X004369Y002627D02*
X004573Y002627D01*
X004556Y002550D02*
X004386Y002550D01*
X004386Y002473D02*
X004556Y002473D01*
X004567Y002395D02*
X004375Y002395D01*
X004343Y002318D02*
X004599Y002318D01*
X004647Y002241D02*
X004295Y002241D01*
X004218Y002164D02*
X004725Y002164D01*
X005252Y003168D02*
X005463Y003168D01*
X005463Y003246D02*
X005330Y003246D01*
X005368Y003323D02*
X005463Y003323D01*
X005463Y003400D02*
X005400Y003400D01*
X005463Y003477D02*
X005011Y003477D01*
X005010Y003555D02*
X004932Y003555D01*
X004932Y003632D02*
X005010Y003632D01*
X005010Y003709D02*
X004932Y003709D01*
X004932Y003787D02*
X005010Y003787D01*
X005010Y003864D02*
X004932Y003864D01*
X004714Y003864D02*
X004187Y003864D01*
X004276Y003787D02*
X004637Y003787D01*
X004584Y003709D02*
X004335Y003709D01*
X004367Y003632D02*
X004552Y003632D01*
X004535Y003555D02*
X004386Y003555D01*
X004206Y004152D02*
X004054Y004089D01*
X003889Y004089D01*
X003736Y004152D01*
X003619Y004269D01*
X003556Y004422D01*
X003556Y004587D01*
X003619Y004739D01*
X003736Y004856D01*
X003889Y004919D01*
X004054Y004919D01*
X004206Y004856D01*
X004323Y004739D01*
X004386Y004587D01*
X004386Y004422D01*
X004323Y004269D01*
X004206Y004152D01*
X004227Y004173D02*
X004715Y004173D01*
X004736Y004152D02*
X004889Y004089D01*
X005054Y004089D01*
X005206Y004152D01*
X005323Y004269D01*
X005386Y004422D01*
X005386Y004587D01*
X005323Y004739D01*
X005206Y004856D01*
X005054Y004919D01*
X004889Y004919D01*
X004736Y004856D01*
X004619Y004739D01*
X004556Y004587D01*
X004556Y004422D01*
X004619Y004269D01*
X004736Y004152D01*
X004638Y004250D02*
X004304Y004250D01*
X004347Y004328D02*
X004595Y004328D01*
X004563Y004405D02*
X004379Y004405D01*
X004386Y004482D02*
X004556Y004482D01*
X004556Y004559D02*
X004386Y004559D01*
X004365Y004637D02*
X004577Y004637D01*
X004609Y004714D02*
X004333Y004714D01*
X004271Y004791D02*
X004671Y004791D01*
X004767Y004869D02*
X004176Y004869D01*
X004081Y005100D02*
X004861Y005100D01*
X004889Y005089D02*
X005054Y005089D01*
X005206Y005152D01*
X005323Y005269D01*
X005386Y005422D01*
X005386Y005587D01*
X005323Y005739D01*
X005206Y005856D01*
X005054Y005919D01*
X004889Y005919D01*
X004736Y005856D01*
X004619Y005739D01*
X004556Y005587D01*
X004556Y005422D01*
X004619Y005269D01*
X004736Y005152D01*
X004889Y005089D01*
X005081Y005100D02*
X005463Y005100D01*
X005463Y005023D02*
X000724Y005023D01*
X000724Y004946D02*
X005463Y004946D01*
X005463Y004869D02*
X005176Y004869D01*
X005271Y004791D02*
X005463Y004791D01*
X005463Y004714D02*
X005333Y004714D01*
X005365Y004637D02*
X005463Y004637D01*
X005463Y004559D02*
X005386Y004559D01*
X005386Y004482D02*
X005463Y004482D01*
X005463Y004405D02*
X005379Y004405D01*
X005347Y004328D02*
X005463Y004328D01*
X005463Y004250D02*
X005304Y004250D01*
X005227Y004173D02*
X005463Y004173D01*
X005463Y004096D02*
X005070Y004096D01*
X004873Y004096D02*
X004070Y004096D01*
X003873Y004096D02*
X000724Y004096D01*
X000724Y004173D02*
X003715Y004173D01*
X003638Y004250D02*
X000724Y004250D01*
X000724Y004328D02*
X003595Y004328D01*
X003563Y004405D02*
X000724Y004405D01*
X000724Y004482D02*
X003556Y004482D01*
X003556Y004559D02*
X000724Y004559D01*
X000724Y004637D02*
X003577Y004637D01*
X003609Y004714D02*
X000724Y004714D01*
X000724Y004791D02*
X003671Y004791D01*
X003767Y004869D02*
X000724Y004869D01*
X000724Y005100D02*
X003861Y005100D01*
X003889Y005089D02*
X004054Y005089D01*
X004206Y005152D01*
X004323Y005269D01*
X004386Y005422D01*
X004386Y005587D01*
X004323Y005739D01*
X004206Y005856D01*
X004054Y005919D01*
X003889Y005919D01*
X003736Y005856D01*
X003619Y005739D01*
X003556Y005587D01*
X003556Y005422D01*
X003619Y005269D01*
X003736Y005152D01*
X003889Y005089D01*
X003711Y005178D02*
X000724Y005178D01*
X000724Y005255D02*
X003633Y005255D01*
X003593Y005332D02*
X000724Y005332D01*
X000724Y005410D02*
X003561Y005410D01*
X003556Y005487D02*
X000724Y005487D01*
X000724Y005564D02*
X003556Y005564D01*
X003579Y005641D02*
X000724Y005641D01*
X000724Y005719D02*
X003611Y005719D01*
X003676Y005796D02*
X000724Y005796D01*
X000724Y005873D02*
X003778Y005873D01*
X003889Y006089D02*
X004054Y006089D01*
X004206Y006152D01*
X004323Y006269D01*
X004386Y006422D01*
X004386Y006587D01*
X004323Y006739D01*
X004206Y006856D01*
X004054Y006919D01*
X003889Y006919D01*
X003736Y006856D01*
X003619Y006739D01*
X003556Y006587D01*
X003556Y006422D01*
X003619Y006269D01*
X003736Y006152D01*
X003889Y006089D01*
X003850Y006105D02*
X000724Y006105D01*
X000724Y006028D02*
X005463Y006028D01*
X005463Y006105D02*
X005092Y006105D01*
X005054Y006089D02*
X005206Y006152D01*
X005323Y006269D01*
X005386Y006422D01*
X005386Y006587D01*
X005323Y006739D01*
X005206Y006856D01*
X005054Y006919D01*
X004889Y006919D01*
X004736Y006856D01*
X004619Y006739D01*
X004556Y006587D01*
X004556Y006422D01*
X004619Y006269D01*
X004736Y006152D01*
X004889Y006089D01*
X005054Y006089D01*
X005164Y005873D02*
X005463Y005873D01*
X005463Y005796D02*
X005266Y005796D01*
X005331Y005719D02*
X005463Y005719D01*
X005463Y005641D02*
X005363Y005641D01*
X005386Y005564D02*
X005463Y005564D01*
X005463Y005487D02*
X005386Y005487D01*
X005381Y005410D02*
X005463Y005410D01*
X005463Y005332D02*
X005349Y005332D01*
X005309Y005255D02*
X005463Y005255D01*
X005463Y005178D02*
X005232Y005178D01*
X004711Y005178D02*
X004232Y005178D01*
X004309Y005255D02*
X004633Y005255D01*
X004593Y005332D02*
X004349Y005332D01*
X004381Y005410D02*
X004561Y005410D01*
X004556Y005487D02*
X004386Y005487D01*
X004386Y005564D02*
X004556Y005564D01*
X004579Y005641D02*
X004363Y005641D01*
X004331Y005719D02*
X004611Y005719D01*
X004676Y005796D02*
X004266Y005796D01*
X004164Y005873D02*
X004778Y005873D01*
X004850Y006105D02*
X004092Y006105D01*
X004236Y006182D02*
X004706Y006182D01*
X004629Y006260D02*
X004314Y006260D01*
X004351Y006337D02*
X004591Y006337D01*
X004559Y006414D02*
X004383Y006414D01*
X004386Y006491D02*
X004556Y006491D01*
X004556Y006569D02*
X004386Y006569D01*
X004361Y006646D02*
X004581Y006646D01*
X004613Y006723D02*
X004330Y006723D01*
X004261Y006801D02*
X004681Y006801D01*
X004789Y006878D02*
X004153Y006878D01*
X004054Y007089D02*
X004206Y007152D01*
X004323Y007269D01*
X004386Y007422D01*
X004386Y007587D01*
X004323Y007739D01*
X004206Y007856D01*
X004054Y007919D01*
X003889Y007919D01*
X003736Y007856D01*
X003619Y007739D01*
X003556Y007587D01*
X003556Y007422D01*
X003619Y007269D01*
X003736Y007152D01*
X003889Y007089D01*
X004054Y007089D01*
X004104Y007110D02*
X004839Y007110D01*
X004889Y007089D02*
X005054Y007089D01*
X005206Y007152D01*
X005323Y007269D01*
X005386Y007422D01*
X005386Y007587D01*
X005323Y007739D01*
X005206Y007856D01*
X005054Y007919D01*
X004889Y007919D01*
X004736Y007856D01*
X004619Y007739D01*
X004556Y007587D01*
X004556Y007422D01*
X004619Y007269D01*
X004736Y007152D01*
X004889Y007089D01*
X004701Y007187D02*
X004241Y007187D01*
X004318Y007264D02*
X004624Y007264D01*
X004589Y007342D02*
X004353Y007342D01*
X004385Y007419D02*
X004557Y007419D01*
X004556Y007496D02*
X004386Y007496D01*
X004386Y007573D02*
X004556Y007573D01*
X004583Y007651D02*
X004360Y007651D01*
X004328Y007728D02*
X004615Y007728D01*
X004686Y007805D02*
X004257Y007805D01*
X004142Y007883D02*
X004801Y007883D01*
X005142Y007883D02*
X005463Y007883D01*
X005463Y007960D02*
X000724Y007960D01*
X000724Y008037D02*
X005463Y008037D01*
X005463Y008114D02*
X000724Y008114D01*
X000724Y008192D02*
X005463Y008192D01*
X005463Y008269D02*
X000724Y008269D01*
X000724Y008346D02*
X005463Y008346D01*
X005463Y008424D02*
X000724Y008424D01*
X000724Y008501D02*
X005463Y008501D01*
X005463Y008578D02*
X000724Y008578D01*
X000724Y008655D02*
X005463Y008655D01*
X005463Y008733D02*
X000724Y008733D01*
X000724Y007883D02*
X003801Y007883D01*
X003686Y007805D02*
X000724Y007805D01*
X000724Y007728D02*
X003615Y007728D01*
X003583Y007651D02*
X000724Y007651D01*
X000724Y007573D02*
X003556Y007573D01*
X003556Y007496D02*
X000724Y007496D01*
X000724Y007419D02*
X003557Y007419D01*
X003589Y007342D02*
X000724Y007342D01*
X000724Y007264D02*
X003624Y007264D01*
X003701Y007187D02*
X000724Y007187D01*
X000724Y007110D02*
X003839Y007110D01*
X003789Y006878D02*
X000724Y006878D01*
X000724Y006955D02*
X005463Y006955D01*
X005463Y006878D02*
X005153Y006878D01*
X005261Y006801D02*
X005463Y006801D01*
X005463Y006723D02*
X005330Y006723D01*
X005361Y006646D02*
X005463Y006646D01*
X005463Y006569D02*
X005386Y006569D01*
X005386Y006491D02*
X005463Y006491D01*
X005463Y006414D02*
X005383Y006414D01*
X005351Y006337D02*
X005463Y006337D01*
X005463Y006260D02*
X005314Y006260D01*
X005236Y006182D02*
X005463Y006182D01*
X005463Y005951D02*
X000724Y005951D01*
X000724Y006182D02*
X003706Y006182D01*
X003629Y006260D02*
X000724Y006260D01*
X000724Y006337D02*
X003591Y006337D01*
X003559Y006414D02*
X000724Y006414D01*
X000724Y006491D02*
X003556Y006491D01*
X003556Y006569D02*
X000724Y006569D01*
X000724Y006646D02*
X003581Y006646D01*
X003613Y006723D02*
X000724Y006723D01*
X000724Y006801D02*
X003681Y006801D01*
X005104Y007110D02*
X005463Y007110D01*
X005463Y007187D02*
X005241Y007187D01*
X005318Y007264D02*
X005463Y007264D01*
X005463Y007342D02*
X005353Y007342D01*
X005385Y007419D02*
X005463Y007419D01*
X005463Y007496D02*
X005386Y007496D01*
X005386Y007573D02*
X005463Y007573D01*
X005463Y007651D02*
X005360Y007651D01*
X005328Y007728D02*
X005463Y007728D01*
X005463Y007805D02*
X005257Y007805D01*
X005463Y007032D02*
X000724Y007032D01*
X000724Y004018D02*
X005463Y004018D01*
X005463Y003941D02*
X000724Y003941D01*
X000724Y003864D02*
X003755Y003864D01*
X003667Y003787D02*
X000724Y003787D01*
X000724Y003709D02*
X003607Y003709D01*
X003575Y003632D02*
X000724Y003632D01*
X000724Y003555D02*
X003556Y003555D01*
X003556Y003477D02*
X000724Y003477D01*
X000724Y003400D02*
X003565Y003400D01*
X003597Y003323D02*
X000724Y003323D01*
X000724Y003246D02*
X003643Y003246D01*
X003720Y003168D02*
X000724Y003168D01*
X000724Y003091D02*
X003884Y003091D01*
X005228Y003864D02*
X005463Y003864D01*
X005463Y003787D02*
X005306Y003787D01*
X005358Y003709D02*
X005463Y003709D01*
X005463Y003632D02*
X005390Y003632D01*
X005407Y003555D02*
X005463Y003555D01*
M02*
